<?xml version="1.0" encoding="UTF-8"?>
<svg width="336px" height="45px" viewBox="0 0 336 45" version="1.1" xmlns="http://www.w3.org/2000/svg" xmlns:xlink="http://www.w3.org/1999/xlink">
    <!-- Generator: Sketch 52.2 (67145) - http://www.bohemiancoding.com/sketch -->
    <title>logo-il3</title>
    <desc>Created with Sketch.</desc>
    <g id="logo-il3" stroke="none" stroke-width="1" fill="none" fill-rule="evenodd">
        <g id="Group" transform="translate(-1.000000, 0.000000)">
            <path d="M45.2443148,28.9875 L44.496577,29.0447727 L44.3574951,29.1593182 L44.3574951,32.8684091 C44.3574951,34.2525 44.9262164,34.8511364 46.2550689,34.8511364 C47.6252328,34.8511364 48.1774295,34.2825 48.1774295,32.8684091 L48.1774295,29.2302273 L48.0259541,29.0734091 L47.2919869,28.9875 L47.2919869,28.4747727 L49.7692984,28.4747727 L49.7692984,28.9875 L49.0628721,29.0734091 L48.9113967,29.2302273 L48.9113967,32.9543182 C48.9113967,34.7815909 48.0397246,35.5806818 46.0609049,35.5806818 C44.0393967,35.5806818 43.1814951,34.7952273 43.1814951,32.9543182 L43.1814951,29.1593182 L43.0437902,29.0447727 L42.3649049,28.9875 L42.3649049,28.4747727 L45.2443148,28.4747727 L45.2443148,28.9875 Z" id="Fill-1" fill="#FFFFFF"></path>
            <polygon id="Fill-3" fill="#FFFFFF" points="58.2994295 29.2305 58.146577 29.0723182 57.4415279 28.9877727 57.4415279 28.4736818 59.8486098 28.4736818 59.8486098 28.9877727 59.1435607 29.0723182 58.9907082 29.2305 58.9907082 34.7232273 59.518118 35.4664091 58.201659 35.4664091 54.2302492 29.9014091 54.2302492 34.7232273 54.3831016 34.8664091 55.0881508 34.9509545 55.0881508 35.4664091 52.6521508 35.4664091 52.6521508 34.9509545 53.358577 34.8664091 53.5114295 34.7232273 53.5114295 29.1582273 53.3723475 29.0450455 52.6246098 28.9877727 52.6246098 28.4736818 54.7975934 28.4736818 54.7975934 28.7873182 58.2994295 33.7250455"></polygon>
            <polygon id="Fill-5" fill="#FFFFFF" points="65.8435934 28.9875 65.0820852 29.0447727 64.9567738 29.1593182 64.9567738 34.7815909 65.0820852 34.8947727 65.8435934 34.9534091 65.8435934 35.4661364 62.8953311 35.4661364 62.8953311 34.9534091 63.6430689 34.8947727 63.7807738 34.7815909 63.7807738 29.1593182 63.6430689 29.0447727 62.8953311 28.9875 62.8953311 28.4747727 65.8435934 28.4747727"></polygon>
            <polygon id="Fill-7" fill="#FFFFFF" points="68.6286754 29.1013636 67.9222492 28.9881818 67.9222492 28.4740909 70.690118 28.4740909 70.690118 28.9881818 70.0126098 29.0454545 69.9286098 29.1586364 71.9638885 34.1822727 73.9289377 29.1586364 73.8600852 29.0454545 73.1412656 28.9881818 73.1412656 28.4740909 75.3541836 28.4740909 75.3541836 28.9881818 74.6491344 29.1013636 72.1305115 35.5090909 71.2023803 35.5090909"></polygon>
            <polygon id="Fill-9" fill="#FFFFFF" points="83.1642557 30.0721364 82.416518 30.0721364 82.2361246 29.1598636 82.0708787 29.0453182 79.7188787 29.0453182 79.7188787 31.5557727 81.3644525 31.5557727 81.5173049 31.4425909 81.6274689 30.6571364 82.2774361 30.6571364 82.2774361 33.0121364 81.6274689 33.0121364 81.5173049 32.2266818 81.3644525 32.1271364 79.7188787 32.1271364 79.7188787 34.8953182 82.4578295 34.8953182 82.6519934 34.7807727 82.8599279 33.6107727 83.5512066 33.6107727 83.5512066 35.4666818 77.7249115 35.4666818 77.7249115 34.9512273 78.4024197 34.8953182 78.5415016 34.7807727 78.5415016 29.1598636 78.4024197 29.0453182 77.7249115 28.9880455 77.7249115 28.4739545 83.1642557 28.4739545"></polygon>
            <path d="M88.5628393,31.8132273 C88.7418557,31.8268636 88.8671672,31.8268636 89.0475607,31.8268636 C90.3337246,31.8268636 90.8735279,31.4136818 90.8735279,30.4427727 C90.8735279,29.4582273 90.3199541,29.0450455 88.9773311,29.0450455 L88.5628393,29.0450455 L88.5628393,31.8132273 Z M89.448282,28.4736818 C91.2618557,28.4736818 92.2023803,29.1009545 92.2023803,30.3295909 C92.2023803,31.2418636 91.6488066,31.8132273 90.5003475,32.0845909 C91.3720197,32.3273182 91.606118,32.6259545 91.9393639,33.8968636 C92.1886098,34.7668636 92.4516262,34.9673182 93.3508393,34.9673182 L93.5725443,34.9673182 L93.5725443,35.4377727 C93.1429049,35.5223182 92.8537246,35.5523182 92.5480197,35.5523182 C91.4959541,35.5523182 91.1227738,35.2086818 90.708282,33.8395909 C90.3337246,32.6259545 90.0569377,32.3832273 89.0200197,32.3832273 C88.8258557,32.3832273 88.7570033,32.3832273 88.5628393,32.3982273 L88.5628393,34.7818636 L88.7019213,34.8950455 L89.3794295,34.9509545 L89.3794295,35.4664091 L86.5702492,35.4664091 L86.5702492,34.9509545 L87.2477574,34.8950455 L87.3868393,34.7818636 L87.3868393,29.1582273 L87.2477574,29.0450455 L86.5702492,28.9877727 L86.5702492,28.4736818 L89.448282,28.4736818 Z" id="Fill-11" fill="#FFFFFF"></path>
            <path d="M96.383377,33.2828182 L97.1724262,33.2828182 L97.3239016,34.581 L97.4340656,34.7378182 C97.9477049,34.881 98.2231148,34.9246364 98.6114426,34.9246364 C99.5946557,34.9246364 100.174393,34.4964545 100.174393,33.7682727 C100.174393,33.3673636 100.009148,33.0973636 99.6208197,32.8696364 C99.4266557,32.7414545 99.3578033,32.7128182 98.3208852,32.2846364 C96.9369508,31.7269091 96.5073115,31.2850909 96.5073115,30.4150909 C96.5073115,29.1441818 97.5318361,28.3450909 99.1512459,28.3450909 C99.8012131,28.3450909 100.341016,28.431 101.116295,28.6750909 L101.116295,30.4150909 L100.382328,30.4150909 L100.203311,29.316 L100.06423,29.1591818 C99.7048197,29.0446364 99.4693443,29.001 99.1512459,29.001 C98.2795738,29.001 97.7397705,29.4305455 97.7397705,30.1287273 C97.7397705,30.7150909 98.0716393,30.9850909 99.4418033,31.4991818 C100.327246,31.8278182 100.562721,31.956 100.89459,32.256 C101.226459,32.556 101.406852,32.9828182 101.406852,33.4532727 C101.406852,34.7378182 100.229475,35.5805455 98.4310492,35.5805455 C97.6282295,35.5805455 97.0884262,35.4946364 96.383377,35.2382727 L96.383377,33.2828182 Z" id="Fill-13" fill="#FFFFFF"></path>
            <polygon id="Fill-15" fill="#FFFFFF" points="107.898675 28.9875 107.137167 29.0447727 107.011856 29.1593182 107.011856 34.7815909 107.137167 34.8947727 107.898675 34.9534091 107.898675 35.4661364 104.950413 35.4661364 104.950413 34.9534091 105.698151 34.8947727 105.835856 34.7815909 105.835856 29.1593182 105.698151 29.0447727 104.950413 28.9875 104.950413 28.4747727 107.898675 28.4747727"></polygon>
            <polygon id="Fill-17" fill="#FFFFFF" points="111.788564 29.1586364 111.5944 30.2427273 110.87558 30.2427273 110.87558 28.4754545 117.227908 28.4754545 117.227908 30.2427273 116.507711 30.2427273 116.327318 29.1586364 116.175843 29.0454545 114.639056 29.0454545 114.639056 34.7809091 114.76299 34.8954545 115.553416 34.9527273 115.553416 35.4668182 112.550072 35.4668182 112.550072 34.9527273 113.325351 34.8954545 113.463056 34.7809091 113.463056 29.0454545 111.927646 29.0454545"></polygon>
            <path d="M121.158833,32.2414091 L123.249193,32.2414091 L122.195751,29.6573182 L121.158833,32.2414091 Z M122.915948,28.3891364 L125.546111,34.8377727 L126.209849,34.9523182 L126.209849,35.4650455 L123.510833,35.4650455 L123.510833,34.9523182 L124.203489,34.8950455 L124.25857,34.7805 L123.469521,32.8264091 L120.909587,32.8264091 L120.148079,34.7805 L120.216931,34.8950455 L120.964669,34.9523182 L120.964669,35.4650455 L118.793062,35.4650455 L118.793062,34.9523182 L119.44303,34.8377727 L122.001587,28.3891364 L122.915948,28.3891364 Z" id="Fill-19" fill="#FFFFFF"></path>
            <polygon id="Fill-21" fill="#FFFFFF" points="128.674767 29.1586364 128.480603 30.2427273 127.761784 30.2427273 127.761784 28.4754545 134.114111 28.4754545 134.114111 30.2427273 133.393915 30.2427273 133.213521 29.1586364 133.062046 29.0454545 131.525259 29.0454545 131.525259 34.7809091 131.649193 34.8954545 132.43962 34.9527273 132.43962 35.4668182 129.436275 35.4668182 129.436275 34.9527273 130.211554 34.8954545 130.349259 34.7809091 130.349259 29.0454545 128.813849 29.0454545"></polygon>
            <path d="M160.923193,34.8954545 C161.28398,34.9090909 161.527718,34.9240909 161.62962,34.9240909 C163.056243,34.9240909 163.675915,34.5109091 163.675915,33.525 C163.675915,32.5977273 163.129226,32.1845455 161.903652,32.1845455 C161.62962,32.1845455 161.442341,32.1981818 160.923193,32.2418182 L160.923193,34.8954545 Z M160.923193,31.6418182 C161.239915,31.6568182 161.28398,31.6568182 161.370734,31.6568182 C162.581161,31.6568182 163.200833,31.2 163.200833,30.3 C163.200833,29.4872727 162.638997,29.0727273 161.500177,29.0727273 C161.370734,29.0727273 161.27021,29.0727273 160.923193,29.1013636 L160.923193,31.6418182 Z M158.84798,34.995 L159.555784,34.9377273 L159.698997,34.8245455 L159.698997,29.2022727 L159.555784,29.0877273 L158.84798,29.0304545 L158.84798,28.5163636 L161.832046,28.5163636 C163.633226,28.5163636 164.555849,29.1013636 164.555849,30.2140909 C164.555849,30.9995455 164.06562,31.5136364 163.085161,31.77 C164.338275,31.8559091 165.030931,32.4695455 165.030931,33.4827273 C165.030931,34.7522727 163.878341,35.5090909 161.947718,35.5090909 L158.84798,35.5090909 L158.84798,34.995 Z" id="Fill-23" fill="#FFFFFF"></path>
            <path d="M170.335325,32.2840909 L172.511062,32.2840909 L171.416308,29.7013636 L170.335325,32.2840909 Z M172.165423,28.4318182 L174.902997,34.8804545 L175.594275,34.995 L175.594275,35.5077273 L172.783718,35.5077273 L172.783718,34.995 L173.503915,34.9390909 L173.563128,34.8245455 L172.742407,32.8690909 L170.075062,32.8690909 L169.283259,34.8245455 L169.354866,34.9390909 L170.134275,34.995 L170.134275,35.5077273 L167.870407,35.5077273 L167.870407,34.995 L168.547915,34.8804545 L171.215259,28.4318182 L172.165423,28.4318182 Z" id="Fill-25" fill="#FFFFFF"></path>
            <path d="M180.747882,31.8559091 C180.935161,31.8695455 181.064603,31.8695455 181.251882,31.8695455 C182.591751,31.8695455 183.154964,31.4563636 183.154964,30.4854545 C183.154964,29.5009091 182.57798,29.0877273 181.180275,29.0877273 L180.747882,29.0877273 L180.747882,31.8559091 Z M181.669128,28.5163636 C183.558439,28.5163636 184.537521,29.145 184.537521,30.3722727 C184.537521,31.2859091 183.960538,31.8559091 182.765259,32.1272727 C183.672734,32.37 183.917849,32.6686364 184.263489,33.9395455 C184.523751,34.8095455 184.796407,35.01 185.734177,35.01 L185.964144,35.01 L185.964144,35.4804545 C185.51798,35.5663636 185.21503,35.595 184.896931,35.595 C183.803554,35.595 183.413849,35.2513636 182.981456,33.8836364 C182.591751,32.6686364 182.303948,32.4272727 181.222964,32.4272727 C181.021915,32.4272727 180.950308,32.4272727 180.747882,32.4409091 L180.747882,34.8245455 L180.891095,34.9377273 L181.597521,34.995 L181.597521,35.5090909 L178.672669,35.5090909 L178.672669,34.995 L179.379095,34.9377273 L179.523685,34.8245455 L179.523685,29.2022727 L179.379095,29.0877273 L178.672669,29.0304545 L178.672669,28.5163636 L181.669128,28.5163636 Z" id="Fill-27" fill="#FFFFFF"></path>
            <path d="M195.274787,35.2516364 C194.308098,35.523 193.645738,35.6225455 192.825016,35.6225455 C190.518459,35.6225455 188.832951,34.083 188.832951,31.9843636 C188.832951,29.8584545 190.489541,28.3884545 192.882852,28.3884545 C193.631967,28.3884545 194.353541,28.5016364 195.274787,28.7743636 L195.274787,30.558 L194.524295,30.558 L194.308098,29.4452727 L194.151115,29.2870909 C193.645738,29.1016364 193.313869,29.0457273 192.838787,29.0457273 C191.268951,29.0457273 190.244426,30.2007273 190.244426,31.9693636 C190.244426,33.8252727 191.340557,34.9666364 193.11282,34.9666364 C193.502525,34.9666364 193.760033,34.9243636 194.12082,34.8098182 L194.280557,34.6666364 L194.568361,33.4543636 L195.274787,33.4543636 L195.274787,35.2516364 Z" id="Fill-29" fill="#FFFFFF"></path>
            <polygon id="Fill-31" fill="#FFFFFF" points="204.930243 30.1146818 204.153587 30.1146818 203.964931 29.2024091 203.7928 29.0878636 201.341652 29.0878636 201.341652 31.5983182 203.057456 31.5983182 203.215816 31.4851364 203.330111 30.6996818 204.008997 30.6996818 204.008997 33.0546818 203.330111 33.0546818 203.215816 32.2692273 203.057456 32.1696818 201.341652 32.1696818 201.341652 34.9378636 204.196275 34.9378636 204.397325 34.8246818 204.613521 33.6546818 205.333718 33.6546818 205.333718 35.5092273 199.267816 35.5092273 199.267816 34.9951364 199.972866 34.9378636 200.117456 34.8246818 200.117456 29.2024091 199.972866 29.0878636 199.267816 29.0305909 199.267816 28.5165 204.930243 28.5165"></polygon>
            <polygon id="Fill-33" fill="#FFFFFF" points="210.39341 29.088 209.60023 29.0307273 209.60023 28.5166364 212.598066 28.5166364 212.598066 29.0307273 211.891639 29.088 211.747049 29.2011818 211.747049 34.938 214.140361 34.938 214.326262 34.8248182 214.528689 33.4543636 215.277803 33.4543636 215.277803 35.508 209.60023 35.508 209.60023 34.9952727 210.39341 34.938 210.522852 34.8248182 210.522852 29.2011818"></polygon>
            <path d="M219.429607,31.9984091 C219.429607,33.8393182 220.367377,35.0243182 221.80777,35.0243182 C223.248164,35.0243182 224.185934,33.8393182 224.185934,32.0406818 C224.185934,30.1725 223.248164,29.0025 221.763705,29.0025 C220.350852,29.0025 219.429607,30.1875 219.429607,31.9984091 M225.59741,32.0120455 C225.59741,34.1679545 224.026197,35.6802273 221.80777,35.6802273 C219.587967,35.6802273 218.018131,34.1679545 218.018131,32.0270455 C218.018131,29.8575 219.587967,28.3452273 221.850459,28.3452273 C224.012426,28.3452273 225.59741,29.9011364 225.59741,32.0120455" id="Fill-35" fill="#FFFFFF"></path>
            <polygon id="Fill-37" fill="#FFFFFF" points="234.979934 29.2730455 234.820197 29.1162273 234.08623 29.0303182 234.08623 28.5162273 236.593836 28.5162273 236.593836 29.0303182 235.858492 29.1162273 235.700131 29.2730455 235.700131 34.7657727 236.24682 35.5089545 234.87941 35.5089545 230.742754 29.9439545 230.742754 34.7657727 230.901115 34.9089545 231.636459 34.9948636 231.636459 35.5089545 229.099934 35.5089545 229.099934 34.9948636 229.835279 34.9089545 229.993639 34.7657727 229.993639 29.2021364 229.849049 29.0875909 229.071016 29.0303182 229.071016 28.5162273 231.334885 28.5162273 231.334885 28.8312273 234.979934 33.7689545"></polygon>
            <path d="M241.63783,32.2840909 L243.813567,32.2840909 L242.718813,29.7013636 L241.63783,32.2840909 Z M243.469305,28.4318182 L246.206879,34.8804545 L246.898157,34.995 L246.898157,35.5077273 L244.0876,35.5077273 L244.0876,34.995 L244.807797,34.9390909 L244.865633,34.8245455 L244.046289,32.8690909 L241.378944,32.8690909 L240.587141,34.8245455 L240.658748,34.9390909 L241.43678,34.995 L241.43678,35.5077273 L239.172911,35.5077273 L239.172911,34.995 L239.851797,34.8804545 L242.517764,28.4318182 L243.469305,28.4318182 Z" id="Fill-39" fill="#FFFFFF"></path>
            <path d="M142.49979,33.9838636 L142.082544,33.9838636 L142.082544,30.2379545 L142.49979,30.2379545 C143.71297,30.2379545 144.303725,30.8502273 144.303725,32.1075 C144.303725,33.3702273 143.71297,33.9838636 142.49979,33.9838636 M142.684315,29.8875 L140.387397,29.8875 L140.387397,30.1970455 L140.855593,30.2311364 L140.978151,30.3279545 L140.978151,33.9047727 L140.855593,34.0015909 L140.387397,34.0356818 L140.387397,34.3465909 L142.684315,34.3465909 C144.497889,34.3465909 145.536184,33.5365909 145.536184,32.1252273 C145.536184,30.7029545 144.497889,29.8875 142.684315,29.8875" id="Fill-41" fill="#FFFFFF"></path>
            <polygon id="Fill-43" fill="#FFFFFF" points="147.44257 34.3461818 151.678374 34.3461818 151.678374 33.1707273 151.091751 33.1707273 150.948538 33.8852727 150.860407 33.9834545 149.137718 33.9834545 149.137718 32.2161818 150.06998 32.2161818 150.173259 32.2911818 150.244866 32.7998182 150.773652 32.7998182 150.773652 31.2670909 150.244866 31.2670909 150.173259 31.7757273 150.06998 31.8534545 149.137718 31.8534545 149.137718 30.2484545 150.608407 30.2484545 150.699292 30.3261818 150.702046 30.3411818 150.814964 30.9166364 151.427751 30.9166364 151.427751 29.8870909 147.44257 29.8870909 147.44257 30.198 147.921784 30.2307273 148.033325 30.3302727 148.033325 33.9057273 147.912144 34.0011818 147.44257 34.0352727"></polygon>
            <polygon id="Fill-45" fill="#FFFFFF" points="50.1024066 6.19445455 50.1024066 6.95945455 48.7625377 7.05763636 48.436177 7.36036364 46.2631934 18.5244545 46.5069311 18.8271818 47.8275213 18.9280909 47.8275213 19.6930909 42.8701443 19.6930909 42.8701443 18.9280909 44.1700787 18.8271818 44.4950623 18.5244545 46.669423 7.36036364 46.446341 7.05763636 45.1450295 6.95945455 45.1450295 6.19445455"></polygon>
            <path d="M53.780918,9.99572727 L53.414623,11.928 C55.3039344,10.458 56.300918,9.97527273 57.4177049,9.97527273 C58.3926557,9.97527273 59.0632787,10.6393636 59.0632787,11.5652727 C59.0632787,12.0084545 59.0026885,12.3698182 58.7782295,13.3966364 L58.0869508,16.5139091 C57.9258361,17.238 57.8652459,17.6198182 57.8652459,17.8420909 C57.8652459,18.4652727 58.2508197,18.828 58.9007869,18.828 C59.2051148,18.828 59.549377,18.7666364 60.0382295,18.6466364 L60.0382295,19.2098182 C58.7589508,19.6925455 58.1902295,19.833 57.5182295,19.833 C56.6052459,19.833 56.1177705,19.4116364 56.1177705,18.6057273 C56.1177705,18.3248182 56.1577049,18.003 56.2802623,17.5189091 L57.1533115,13.7989091 C57.2758689,13.2943636 57.336459,12.8116364 57.336459,12.4707273 C57.336459,11.6457273 56.9908197,11.2216364 56.3215738,11.2216364 C55.487082,11.2216364 54.5327869,11.7261818 53.2328525,12.8934545 L51.9742295,19.6925455 L50.2474098,19.6925455 L51.931541,11.4643636 L50.2666885,11.163 L50.2666885,10.6598182 L53.2741639,9.99572727 L53.780918,9.99572727 Z" id="Fill-47" fill="#FFFFFF"></path>
            <path d="M65.4454885,11.1024545 C65.2003738,10.9415455 65.037882,10.8801818 64.7955213,10.8801818 C64.002341,10.8801818 63.3936852,11.4856364 63.3936852,12.2301818 C63.3936852,12.8533636 63.6167672,13.1342727 64.9167016,14.1201818 C65.9522426,14.9042727 66.0954557,15.0256364 66.3997836,15.3474545 C66.7853574,15.7497273 66.9685049,16.2324545 66.9685049,16.797 C66.9685049,18.5860909 65.404177,19.8747273 63.2091607,19.8747273 C61.6048984,19.8747273 60.5487016,19.1697273 60.5487016,18.1238182 C60.5487016,17.4992727 60.9742098,17.0574545 61.5856197,17.0574545 C61.8692918,17.0574545 62.0524393,17.1379091 62.4793246,17.4379091 L62.1130295,18.4442727 C62.519259,18.9474545 62.9461443,19.1492727 63.5961115,19.1492727 C64.6936197,19.1492727 65.4248328,18.4851818 65.4248328,17.4992727 C65.4248328,16.8160909 65.1191279,16.3933636 64.0229967,15.5683636 C62.9461443,14.7651818 62.8855541,14.7038182 62.5798492,14.3424545 C62.2548656,13.9783636 62.0923738,13.5174545 62.0923738,13.0129091 C62.0923738,11.3629091 63.6773574,9.97472727 65.5666689,9.97472727 C66.7041115,9.97472727 67.4780131,10.4997273 67.4780131,11.2442727 C67.4780131,11.8265455 67.0497508,12.1879091 66.299259,12.2683636 L65.4454885,11.1024545 Z" id="Fill-49" fill="#FFFFFF"></path>
            <path d="M72.5963672,8.04490909 L72.169482,10.3385455 L75.0943344,10.3385455 L75.0943344,11.2017273 L72.0083672,11.2017273 L70.9507934,16.5744545 C70.8695475,16.9767273 70.8282361,17.2985455 70.8282361,17.499 C70.8282361,18.264 71.2551213,18.6867273 72.0675803,18.6867273 C72.5963672,18.6867273 73.1843672,18.5667273 73.9982033,18.3035455 L73.9982033,18.9485455 C72.4738098,19.5921818 71.5801049,19.8335455 70.8089574,19.8335455 C69.7307279,19.8335455 69.1633836,19.1899091 69.1633836,18.024 C69.1633836,17.5999091 69.203318,17.2576364 69.3258754,16.6549091 L70.4220066,11.2017273 L69.1633836,11.304 L69.1633836,10.6999091 L70.6450885,10.0562727 L71.6613508,8.04490909 L72.5963672,8.04490909 Z" id="Fill-51" fill="#FFFFFF"></path>
            <path d="M80.1957508,6.636 C80.1957508,7.221 79.6876197,7.70236364 79.0775869,7.70236364 C78.4689311,7.70236364 78.0007344,7.23872727 78.0007344,6.636 C78.0007344,6.01281818 78.4895869,5.53009091 79.0982426,5.53009091 C79.6876197,5.53009091 80.1957508,6.05372727 80.1957508,6.636 Z M79.2208,9.996 L77.7569967,17.5205455 C77.7170623,17.6814545 77.6964066,17.9214545 77.6964066,18.0237273 C77.6964066,18.5255455 78.0213902,18.8078182 78.631423,18.8078182 C79.0583082,18.8078182 79.4218492,18.726 80.1764721,18.5064545 L80.1764721,19.1296364 C78.9770623,19.6123636 78.1026361,19.8332727 77.3108328,19.8332727 C76.4377836,19.8332727 76.0108984,19.3696364 76.0108984,18.4846364 C76.0108984,18.1832727 76.0508328,17.901 76.1320787,17.4591818 L77.3314885,11.4646364 L75.6872918,11.1619091 L75.6872918,10.6600909 L78.6920131,9.996 L79.2208,9.996 Z" id="Fill-53" fill="#FFFFFF"></path>
            <path d="M85.174059,8.04490909 L84.7471738,10.3385455 L87.6734033,10.3385455 L87.6734033,11.2017273 L84.586059,11.2017273 L83.5284852,16.5744545 C83.4472393,16.9767273 83.4073049,17.2985455 83.4073049,17.499 C83.4073049,18.264 83.8341902,18.6867273 84.6466492,18.6867273 C85.174059,18.6867273 85.762059,18.5667273 86.5758951,18.3035455 L86.5758951,18.9485455 C85.0528787,19.5921818 84.1577967,19.8335455 83.3866492,19.8335455 C82.3097967,19.8335455 81.7410754,19.1899091 81.7410754,18.024 C81.7410754,17.5999091 81.7823869,17.2576364 81.9035672,16.6549091 L83.0010754,11.2017273 L81.7410754,11.304 L81.7410754,10.6999091 L83.2241574,10.0562727 L84.2390426,8.04490909 L85.174059,8.04490909 Z" id="Fill-55" fill="#FFFFFF"></path>
            <path d="M91.8185967,10.2375 L90.537941,16.1106818 C90.3961049,16.7543182 90.3162361,17.2793182 90.3162361,17.5793182 C90.3162361,18.2843182 90.7417443,18.7275 91.4523016,18.7275 C92.3060721,18.7275 93.1804984,18.3443182 94.3785311,17.4388636 L95.9015475,10.1570455 L97.5484984,10.1570455 L96.1053508,16.7352273 C95.9827934,17.3175 95.9015475,17.8015909 95.9015475,18.0620455 C95.9015475,18.5461364 96.3284328,18.8870455 96.9370885,18.8870455 C97.202859,18.8870455 97.4879082,18.8270455 98.0965639,18.6675 L98.0965639,19.2293182 C96.5928262,19.7529545 96.0860721,19.8729545 95.4553836,19.8729545 C94.682859,19.8729545 94.2766295,19.4311364 94.2766295,18.5665909 C94.2766295,18.4847727 94.2766295,18.3852273 94.2972852,18.1847727 C93.0372852,19.2702273 91.7180721,19.8729545 90.5999082,19.8729545 C89.4004984,19.8729545 88.6500066,19.1488636 88.6500066,17.9829545 C88.6500066,17.6611364 88.7105967,17.2179545 88.8124984,16.7543182 L89.9898754,11.4443182 L88.3029902,11.1429545 L88.3029902,10.6397727 L91.4936131,9.95522727 L91.8185967,10.2375 Z" id="Fill-57" fill="#FFFFFF"></path>
            <path d="M103.278813,8.04490909 L102.851928,10.3385455 L105.778157,10.3385455 L105.778157,11.2017273 L102.690813,11.2017273 L101.633239,16.5744545 C101.55337,16.9767273 101.512059,17.2985455 101.512059,17.499 C101.512059,18.264 101.938944,18.6867273 102.751403,18.6867273 C103.278813,18.6867273 103.86819,18.5667273 104.682026,18.3035455 L104.682026,18.9485455 C103.157633,19.5921818 102.262551,19.8335455 101.491403,19.8335455 C100.414551,19.8335455 99.8458295,19.1899091 99.8458295,18.024 C99.8458295,17.5999091 99.887141,17.2576364 100.008321,16.6549091 L101.10583,11.2017273 L99.8458295,11.304 L99.8458295,10.6999091 L101.328911,10.0562727 L102.345174,8.04490909 L103.278813,8.04490909 Z" id="Fill-59" fill="#FFFFFF"></path>
            <path d="M116.28339,10.8207273 C115.998341,10.7811818 115.877161,10.7607273 115.735325,10.7607273 C113.804702,10.7607273 112.037948,13.3161818 112.037948,16.1511818 C112.037948,17.7616364 112.667259,18.7270909 113.7028,18.7270909 C114.577226,18.7270909 115.389685,18.2034545 116.364636,17.0170909 L117.258341,11.9675455 L116.28339,10.8207273 Z M120.122603,4.88618182 L117.948243,16.9366364 C117.868374,17.4398182 117.827062,17.7411818 117.827062,18.0425455 C117.827062,18.5866364 118.112111,18.8484545 118.680833,18.8484545 C119.045751,18.8484545 119.370734,18.8061818 120.041357,18.6466364 L120.041357,19.2493636 C118.86398,19.653 118.13139,19.833 117.502079,19.833 C116.608374,19.833 116.181489,19.3502727 116.181489,18.3643636 C116.181489,18.2443636 116.181489,18.183 116.202144,18.003 C115.206538,19.2493636 114.150341,19.8739091 113.012898,19.8739091 C111.367325,19.8739091 110.371718,18.5061818 110.371718,16.293 C110.371718,14.2611818 111.142866,12.5307273 112.565357,11.3034545 C113.560964,10.4389091 114.779652,9.97527273 115.958407,9.97527273 C116.527128,9.97527273 116.973292,10.0557273 117.562669,10.2575455 L118.274603,6.21436364 L116.485816,6.05209091 L116.485816,5.48890909 L119.595193,4.88618182 L120.122603,4.88618182 Z" id="Fill-61" fill="#FFFFFF"></path>
            <path d="M125.285298,13.7784545 C126.077102,13.2752727 126.503987,12.633 126.503987,11.928 C126.503987,11.3034545 126.037167,10.8220909 125.427134,10.8220909 C124.189167,10.8220909 123.112315,12.1884545 122.522938,14.5434545 C123.802216,14.4425455 124.574741,14.2202727 125.285298,13.7784545 Z M127.722675,18.063 C126.362151,19.3107273 125.142085,19.8739091 123.781561,19.8739091 C121.850938,19.8739091 120.694216,18.5252727 120.694216,16.2520909 C120.694216,14.1793636 121.629233,12.2089091 123.192184,11.0225455 C124.06661,10.3584545 125.040184,9.97527273 125.893954,9.97527273 C127.134675,9.97527273 127.96779,10.7811818 127.96779,11.9675455 C127.96779,13.7989091 125.995856,14.9443636 122.421036,15.2266364 C122.379725,15.5484545 122.359069,15.8102727 122.359069,16.0911818 C122.359069,17.7411818 123.152249,18.7666364 124.410872,18.7666364 C125.44779,18.7666364 126.403462,18.2852727 127.722675,17.1166364 L127.722675,18.063 Z" id="Fill-63" fill="#FFFFFF"></path>
            <polygon id="Fill-65" fill="#FFFFFF" points="133.819285 18.8674091 134.977384 18.7665 135.323023 18.4855909 135.323023 7.40059091 134.977384 7.11831818 133.656793 7.01877273 133.656793 6.19377273 143.409056 6.19377273 143.409056 9.33286364 142.290892 9.33286364 141.986564 7.42104545 141.72217 7.11831818 137.151744 7.11831818 137.151744 12.4105909 140.482826 12.4105909 140.767875 12.1283182 140.971679 10.6596818 141.925974 10.6596818 141.925974 15.1051364 140.971679 15.1051364 140.767875 13.6365 140.482826 13.3351364 137.151744 13.3351364 137.151744 18.4855909 137.496007 18.7665 138.939154 18.8674091 138.939154 19.6924091 133.819285 19.6924091"></polygon>
            <path d="M146.092374,14.8444091 C146.092374,17.3398636 147.209161,18.9885 148.896046,18.9885 C150.60221,18.9885 151.718997,17.3589545 151.718997,14.8648636 C151.718997,12.3298636 150.60221,10.7194091 148.854734,10.7194091 C147.188505,10.7194091 146.092374,12.3489545 146.092374,14.8444091 M153.628964,14.8648636 C153.628964,17.7816818 151.658407,19.8735 148.896046,19.8735 C146.133685,19.8735 144.182407,17.8007727 144.182407,14.8648636 C144.182407,11.8675909 146.11303,9.83577273 148.93598,9.83577273 C151.658407,9.83577273 153.628964,11.9466818 153.628964,14.8648636" id="Fill-67" fill="#FFFFFF"></path>
            <path d="M154.992105,18.9679091 L156.089613,18.867 L156.433875,18.5451818 L156.433875,11.2633636 L154.992105,11.2633636 L154.992105,10.6388182 L157.348236,9.91472727 L158.120761,9.91472727 L158.120761,11.8074545 C158.792761,11.1229091 159.441351,10.5392727 160.295121,9.85472727 C160.498925,9.81518182 160.599449,9.81518182 160.782597,9.81518182 C161.228761,9.81518182 161.51381,9.87518182 162.021941,10.077 L162.021941,11.8074545 L161.370597,11.8074545 C161.04699,11.4447273 160.782597,11.3247273 160.357089,11.3247273 C159.686466,11.3247273 159.055777,11.7460909 158.120761,12.7933636 L158.120761,18.5451818 L158.4664,18.867 L159.887515,18.9679091 L159.887515,19.692 L154.992105,19.692 L154.992105,18.9679091 Z" id="Fill-69" fill="#FFFFFF"></path>
            <path d="M166.27,11.0218636 C167.854984,10.1368636 168.688098,9.8355 169.561148,9.8355 C170.537475,9.8355 171.206721,10.2568636 171.756164,11.1636818 C173.522918,10.1764091 174.457934,9.8355 175.330984,9.8355 C176.895311,9.8355 177.870262,11.0014091 177.870262,12.8736818 L177.870262,18.5450455 L178.215902,18.8668636 L179.31341,18.9691364 L179.31341,19.6918636 L174.864164,19.6918636 L174.864164,18.9691364 L175.818459,18.8668636 L176.184754,18.5450455 L176.184754,13.2145909 C176.184754,11.8468636 175.594,11.1636818 174.397344,11.1636818 C173.706066,11.1636818 173.118066,11.3245909 172.060492,11.8059545 L172.060492,18.5450455 L172.42541,18.8668636 L173.381082,18.9691364 L173.381082,19.6918636 L169.054393,19.6918636 L169.054393,18.9691364 L170.027967,18.8668636 L170.373607,18.5450455 L170.373607,13.2145909 C170.373607,11.8264091 169.804885,11.1636818 168.626131,11.1636818 C167.915574,11.1636818 167.286262,11.3245909 166.27,11.8059545 L166.27,18.5450455 L166.615639,18.8668636 L167.59059,18.9691364 L167.59059,19.6918636 L163.141344,19.6918636 L163.141344,18.9691364 L164.238852,18.8668636 L164.583115,18.5450455 L164.583115,11.2632273 L163.141344,11.2632273 L163.141344,10.6400455 L165.497475,9.91459091 L166.27,9.91459091 L166.27,11.0218636 Z" id="Fill-71" fill="#FFFFFF"></path>
            <path d="M186.447626,14.3011364 C184.700151,14.8029545 184.394446,14.9038636 183.704544,15.2270455 C182.729593,15.6893182 182.302708,16.2525 182.302708,17.0775 C182.302708,18.0838636 182.93202,18.7465909 183.887692,18.7465909 C184.577593,18.7465909 185.248216,18.5052273 186.447626,17.8425 L186.447626,14.3011364 Z M186.447626,18.5256818 C184.963167,19.4911364 184.091495,19.8334091 183.094511,19.8334091 C181.550839,19.8334091 180.513921,18.7875 180.513921,17.2779545 C180.513921,16.0902273 181.14461,15.2870455 182.546446,14.7238636 C183.542052,14.3420455 183.989593,14.2002273 186.447626,13.5975 L186.447626,12.9538636 C186.447626,11.3038636 185.960151,10.7202273 184.618905,10.7202273 C184.070839,10.7202273 183.66461,10.8006818 183.033921,11.0215909 L183.033921,12.7111364 L181.632085,12.7111364 C181.165266,12.7111364 181.002774,12.5706818 181.002774,12.1288636 C181.002774,10.7802273 182.669003,9.83522727 185.066446,9.83522727 C187.220151,9.83522727 188.133134,10.7011364 188.133134,12.7111364 L188.133134,18.5447727 L188.478774,18.8679545 L189.555626,18.9688636 L189.555626,19.6929545 L186.710643,19.6929545 L186.447626,18.5256818 Z" id="Fill-73" fill="#FFFFFF"></path>
            <path d="M198.557397,18.8480455 C197.278118,19.5516818 196.343102,19.8339545 195.227692,19.8339545 C192.503889,19.8339545 190.675167,17.8416818 190.675167,14.8635 C190.675167,11.8471364 192.625069,9.83577273 195.551298,9.83577273 C197.357987,9.83577273 198.538118,10.5803182 198.538118,11.7462273 C198.538118,12.3898636 198.090577,12.8316818 197.439233,12.8316818 C197.075692,12.8316818 196.809921,12.7525909 196.486315,12.5507727 L196.486315,10.9007727 C196.139298,10.7207727 195.857003,10.6389545 195.470052,10.6389545 C193.722577,10.6389545 192.524544,12.2889545 192.524544,14.6630455 C192.524544,17.1380455 193.824479,18.6462273 195.956151,18.6462273 C196.851233,18.6462273 197.520479,18.4253182 198.557397,17.8007727 L198.557397,18.8480455 Z" id="Fill-75" fill="#FFFFFF"></path>
            <path d="M203.273515,6.61663636 C203.273515,7.26027273 202.765384,7.76345455 202.094761,7.76345455 C201.444793,7.76345455 200.936662,7.26027273 200.936662,6.61663636 C200.936662,5.97163636 201.465449,5.45072727 202.115416,5.45072727 C202.746105,5.45072727 203.273515,5.97163636 203.273515,6.61663636 Z M202.825974,9.91527273 L202.825974,18.5457273 L203.171613,18.8675455 L204.269121,18.9684545 L204.269121,19.6911818 L199.678039,19.6911818 L199.678039,18.9684545 L200.77417,18.8675455 L201.11981,18.5457273 L201.11981,11.2639091 L199.678039,11.2639091 L199.678039,10.6407273 L202.03417,9.91527273 L202.825974,9.91527273 Z" id="Fill-77" fill="#FFFFFF"></path>
            <path d="M213.371416,4.88618182 L210.405252,8.70845455 L209.38899,8.70845455 L211.360925,4.88618182 L213.371416,4.88618182 Z M207.337187,14.8448182 C207.337187,17.3389091 208.453974,18.9875455 210.140859,18.9875455 C211.847023,18.9875455 212.965187,17.358 212.965187,14.8639091 C212.965187,12.3289091 211.847023,10.7198182 210.099548,10.7198182 C208.434695,10.7198182 207.337187,12.3493636 207.337187,14.8448182 Z M214.873777,14.8639091 C214.873777,17.7820909 212.904597,19.8739091 210.140859,19.8739091 C207.378498,19.8739091 205.42722,17.8011818 205.42722,14.8639091 C205.42722,11.8666364 207.357843,9.83481818 210.180793,9.83481818 C212.904597,9.83481818 214.873777,11.9470909 214.873777,14.8639091 Z" id="Fill-79" fill="#FFFFFF"></path>
            <path d="M232.084551,19.2302727 C230.540879,19.7320909 229.38278,19.9339091 228.000223,19.9339091 C225.868551,19.9339091 224.243633,19.2698182 222.881731,17.8407273 C221.663043,16.5343636 221.013075,14.8039091 221.013075,12.8525455 C221.013075,8.748 223.877338,5.95254545 228.06219,5.95254545 C229.32219,5.95254545 230.297141,6.093 232.084551,6.63572727 L232.084551,9.73390909 L230.945731,9.73390909 L230.64278,7.90390909 L230.378387,7.54118182 C229.422715,7.14027273 228.895305,7.01890909 228.081469,7.01890909 C224.994125,7.01890909 223.104813,9.25118182 223.104813,12.873 C223.104813,16.5943636 225.096026,18.8675455 228.40783,18.8675455 C229.037141,18.8675455 229.503961,18.828 230.174584,18.6057273 L230.499567,18.2839091 L230.987043,16.0516364 L232.084551,16.0516364 L232.084551,19.2302727 Z" id="Fill-81" fill="#FFFFFF"></path>
            <path d="M235.642157,14.8444091 C235.642157,17.3398636 236.760321,18.9885 238.447207,18.9885 C240.151993,18.9885 241.270157,17.3589545 241.270157,14.8648636 C241.270157,12.3298636 240.151993,10.7194091 238.404518,10.7194091 C236.739666,10.7194091 235.642157,12.3489545 235.642157,14.8444091 M243.180125,14.8648636 C243.180125,17.7816818 241.209567,19.8735 238.447207,19.8735 C235.683469,19.8735 233.733567,17.8007727 233.733567,14.8648636 C233.733567,11.8675909 235.662813,9.83577273 238.485764,9.83577273 C241.209567,9.83577273 243.180125,11.9466818 243.180125,14.8648636" id="Fill-83" fill="#FFFFFF"></path>
            <path d="M244.543266,18.9679091 L245.639397,18.867 L245.985036,18.5451818 L245.985036,11.2633636 L244.543266,11.2633636 L244.543266,10.6388182 L246.89802,9.91472727 L247.671921,9.91472727 L247.671921,11.022 C249.457954,10.077 250.15061,9.83427273 251.042938,9.83427273 C252.729823,9.83427273 253.685495,10.9415455 253.685495,12.8724545 L253.685495,18.5451818 L254.031134,18.867 L255.128643,18.9679091 L255.128643,19.692 L250.67802,19.692 L250.67802,18.9679091 L251.654348,18.867 L251.99861,18.5451818 L251.99861,13.2147273 C251.99861,11.787 251.409233,11.1638182 250.069364,11.1638182 C249.317495,11.1638182 248.748774,11.3029091 247.671921,11.8074545 L247.671921,18.5451818 L248.016184,18.867 L248.992511,18.9679091 L248.992511,19.692 L244.543266,19.692 L244.543266,18.9679091 Z" id="Fill-85" fill="#FFFFFF"></path>
            <path d="M255.983239,11.2228636 L255.983239,10.5996818 L257.324485,10.0160455 L258.197534,8.14513636 L258.949403,8.14513636 L258.949403,10.2778636 L262.036748,10.2778636 L262.036748,11.2228636 L258.949403,11.2228636 L258.949403,16.5342273 C258.949403,18.2237727 259.334977,18.7269545 260.594977,18.7269545 C261.061797,18.7269545 261.529993,18.6874091 262.036748,18.5646818 L262.036748,19.3092273 C260.959895,19.6324091 260.208026,19.7524091 259.334977,19.7524091 C257.791305,19.7524091 257.262518,19.2505909 257.262518,17.7205909 L257.262518,11.2228636 L255.983239,11.2228636 Z" id="Fill-87" fill="#FFFFFF"></path>
            <path d="M268.31623,4.88618182 L265.350066,8.70845455 L264.333803,8.70845455 L266.305738,4.88618182 L268.31623,4.88618182 Z M266.101934,9.91527273 L266.101934,18.5457273 L266.447574,18.8675455 L267.543705,18.9684545 L267.543705,19.6911818 L262.973279,19.6911818 L262.973279,18.9684545 L264.050131,18.8675455 L264.39577,18.5457273 L264.39577,11.2639091 L262.973279,11.2639091 L262.973279,10.6393636 L265.310131,9.91527273 L266.101934,9.91527273 Z" id="Fill-89" fill="#FFFFFF"></path>
            <path d="M268.56162,18.9679091 L269.657751,18.867 L270.00339,18.5451818 L270.00339,11.2633636 L268.56162,11.2633636 L268.56162,10.6388182 L270.916374,9.91472727 L271.690275,9.91472727 L271.690275,11.022 C273.477685,10.077 274.168964,9.83427273 275.061292,9.83427273 C276.748177,9.83427273 277.702472,10.9415455 277.702472,12.8724545 L277.702472,18.5451818 L278.049489,18.867 L279.14562,18.9679091 L279.14562,19.692 L274.696374,19.692 L274.696374,18.9679091 L275.672702,18.867 L276.018341,18.5451818 L276.018341,13.2147273 C276.018341,11.787 275.427587,11.1638182 274.087718,11.1638182 C273.335849,11.1638182 272.765751,11.3029091 271.690275,11.8074545 L271.690275,18.5451818 L272.034538,18.867 L273.010866,18.9679091 L273.010866,19.692 L268.56162,19.692 L268.56162,18.9679091 Z" id="Fill-91" fill="#FFFFFF"></path>
            <path d="M283.151043,9.81463636 L283.151043,16.4732727 C283.151043,17.9214545 283.759698,18.5869091 285.120223,18.5869091 C285.872092,18.5869091 286.542715,18.426 287.477731,18.0019091 L287.477731,11.1823636 L286.035961,11.1823636 L286.035961,10.5591818 L288.392092,9.81463636 L289.163239,9.81463636 L289.163239,18.5446364 L289.529534,18.8678182 L290.48383,18.9687273 L290.48383,19.6928182 L287.477731,19.6928182 L287.477731,18.5650909 C285.994649,19.551 285.18219,19.8741818 284.125993,19.8741818 C282.418452,19.8741818 281.464157,18.7669091 281.464157,16.8155455 L281.464157,11.1823636 L280.022387,11.1823636 L280.022387,10.5591818 L282.377141,9.81463636 L283.151043,9.81463636 Z" id="Fill-93" fill="#FFFFFF"></path>
            <path d="M297.841403,14.3011364 C296.093928,14.8029545 295.788223,14.9038636 295.096944,15.2270455 C294.12337,15.6893182 293.696485,16.2525 293.696485,17.0775 C293.696485,18.0838636 294.325797,18.7465909 295.281469,18.7465909 C295.97137,18.7465909 296.641993,18.5052273 297.841403,17.8425 L297.841403,14.3011364 Z M297.841403,18.5256818 C296.356944,19.4911364 295.485272,19.8334091 294.488289,19.8334091 C292.944616,19.8334091 291.907698,18.7875 291.907698,17.2779545 C291.907698,16.0902273 292.538387,15.2870455 293.940223,14.7238636 C294.93583,14.3420455 295.38337,14.2002273 297.841403,13.5975 L297.841403,12.9538636 C297.841403,11.3038636 297.353928,10.7202273 296.012682,10.7202273 C295.464616,10.7202273 295.058387,10.8006818 294.427698,11.0215909 L294.427698,12.7111364 L293.025862,12.7111364 C292.559043,12.7111364 292.396551,12.5706818 292.396551,12.1288636 C292.396551,10.7802273 294.061403,9.83522727 296.460223,9.83522727 C298.613928,9.83522727 299.526911,10.7011364 299.526911,12.7111364 L299.526911,18.5447727 L299.872551,18.8679545 L300.949403,18.9688636 L300.949403,19.6929545 L298.10442,19.6929545 L297.841403,18.5256818 Z" id="Fill-95" fill="#FFFFFF"></path>
            <path d="M17.5507541,29.7338182 C14.7333115,29.7338182 12.8977049,28.1942727 12.8977049,27.2765455 L12.8811803,26.9738182 L12.8853115,26.9710909 L13.0051148,24.2901818 L17.1899672,27.3842727 C17.3056393,27.4701818 17.4419672,27.5138182 17.5796721,27.5138182 C17.716,27.5138182 17.8523279,27.4701818 17.968,27.3842727 L22.0743607,24.4797273 L22.2437377,26.7242727 L22.2437377,27.297 C22.2437377,28.2051818 20.404,29.7338182 17.5507541,29.7338182 Z M9.24990164,20.337 L17.5741639,14.9288182 L25.8998033,20.337 L17.5796721,26.067 L9.24990164,20.337 Z M27.4352131,20.8742727 C27.6059672,20.7488182 27.7064918,20.5483636 27.7064918,20.337 C27.7064918,20.127 27.6059672,19.9265455 27.4352131,19.8010909 L17.9803934,13.7029091 C17.7380328,13.5229091 17.408918,13.5229091 17.1665574,13.7029091 L7.71311475,19.8024545 C7.54236066,19.9265455 7.44321311,20.127 7.44321311,20.337 C7.44321311,20.5483636 7.54236066,20.7460909 7.71311475,20.8742727 L8.55311475,21.5397273 L8.91527869,24.1988182 C8.91527869,24.5547273 9.20445902,24.8424545 9.56386885,24.8424545 C9.92190164,24.8424545 10.212459,24.5547273 10.212459,24.1988182 L10.073377,22.2829091 L11.7850492,23.4556364 C11.7850492,23.4556364 11.555082,27.492 11.5991475,27.5833636 C11.836,29.4188182 14.4565246,31.0156364 17.5507541,31.0156364 C20.8267541,31.0156364 23.596,29.2306364 23.596,27.297 L23.371541,23.5156364 L27.4352131,20.8742727 Z" id="Fill-97" fill="#FFFFFF"></path>
            <path d="M33.157541,17.0796818 L33.157541,29.0524091 L33.157541,17.0796818 Z M17.0763607,44.0251364 C10.9471148,43.8778636 4.45157377,40.9828636 2.27032787,39.4146818 C2.01006557,39.2278636 1.98114754,39.0083182 1.98114754,38.5869545 L1.98390164,4.59422727 C2.01281967,4.22604545 2.1257377,4.05013636 2.3887541,3.92468182 C7.57747541,2.20104545 12.6367541,1.32559091 17.4357705,1.32559091 C21.9084262,1.32559091 27.0379344,2.2215 32.6893443,3.98195455 C33.018459,4.12240909 33.1368852,4.32286364 33.1534098,4.79877273 L33.157541,38.3796818 C33.157541,38.9960455 33.1437705,39.2019545 32.8449508,39.4146818 C30.666459,40.9801364 24.1805574,43.8710455 18.0581967,44.0237727 L17.0763607,44.0251364 Z M34.1352459,4.47559091 C34.1008197,3.58240909 33.6753115,3.30422727 33.1065902,3.09559091 C27.3105902,1.28059091 22.042,0.358772727 17.4357705,0.358772727 C12.4687541,0.358772727 7.23596721,1.27240909 1.8764918,3.07240909 C1.40278689,3.26877273 1.05714754,3.55513636 1.00206557,4.29559091 L0.999311475,38.5869545 C0.999311475,39.0042273 0.999311475,39.6996818 1.69196721,40.1974091 C4.01918033,41.8705909 11.0614098,44.9987727 17.5541967,45.0001364 L17.562459,45.0001364 C24.0538689,44.9987727 31.0960984,41.8705909 33.4246885,40.1974091 C34.138,39.6833182 34.138,39.0205909 34.138,38.3796818 L34.1352459,4.47559091 Z" id="Fill-99" fill="#FFFFFF"></path>
            <path d="M29.4875672,22.1127273 C29.1873705,22.1236364 28.9408787,22.3622727 28.9312393,22.665 C28.920223,22.98 29.1694689,23.2431818 29.4875672,23.2527273 L31.8726164,23.3290909 L31.8726164,22.0363636 L29.4875672,22.1127273 Z" id="Fill-102" fill="#FFFFFF"></path>
            <path d="M26.6340459,26.3807727 C26.5046033,26.6671364 26.6340459,27.0053182 26.9246033,27.1335 L31.8695869,29.3180455 L31.8695869,29.0548636 L31.8695869,27.7935 L27.3666361,26.0807727 C27.0829639,25.9744091 26.7593574,26.1039545 26.6340459,26.3807727" id="Fill-104" fill="#FFFFFF"></path>
            <path d="M25.1164,29.9642727 C24.8850557,30.1810909 24.8754164,30.5410909 25.0943672,30.7701818 L31.8722033,37.872 L31.8722033,35.6942727 L25.9137115,29.9697273 C25.6933836,29.7583636 25.3422361,29.7542727 25.1164,29.9642727" id="Fill-106" fill="#FFFFFF"></path>
            <path d="M21.7033836,12.7377273 C21.9925639,12.8672727 22.3340721,12.7390909 22.4648918,12.4540909 L26.474859,3.65863636 C25.8675803,3.52909091 25.2671869,3.41045455 24.6750557,3.30545455 L21.4004328,12.0190909 C21.2971541,12.2986364 21.4265967,12.6136364 21.7033836,12.7377273" id="Fill-108" fill="#FFFFFF"></path>
            <path d="M25.4021377,15.2213182 C25.6252197,15.4449545 25.9887607,15.4490455 26.2159738,15.2281364 L31.8687607,9.71222727 L31.8687607,7.41040909 L25.3869902,14.4358636 C25.1818098,14.6595 25.185941,15.0058636 25.4021377,15.2213182" id="Fill-110" fill="#FFFFFF"></path>
            <path d="M28.8185967,18.2068636 C28.9356459,18.5000455 29.2702689,18.6432273 29.5649574,18.5286818 L31.8701377,17.6314091 L31.8687607,17.0832273 L31.8687607,16.1968636 L29.1091541,17.4827727 C28.8378754,17.6095909 28.7070557,17.9259545 28.8185967,18.2068636" id="Fill-112" fill="#FFFFFF"></path>
            <path d="M21.7336787,32.7328636 C21.4362361,32.8460455 21.2875148,33.1760455 21.4018098,33.4705909 L24.5772852,41.6715 C25.1363672,41.5105909 25.6830557,41.3401364 26.2077115,41.1615 L22.4635148,33.0287727 C22.3382033,32.7574091 22.0201049,32.6237727 21.7336787,32.7328636" id="Fill-114" fill="#FFFFFF"></path>
            <path d="M6.20620984,22.7012727 C6.21722623,22.3862727 5.96660328,22.1230909 5.64850492,22.1121818 L3.26620984,22.0358182 L3.26620984,23.3285455 L5.64850492,23.2535455 C5.94870164,23.2426364 6.19657049,23.004 6.20620984,22.7012727" id="Fill-116" fill="#FFFFFF"></path>
            <path d="M8.51455738,26.4087273 C8.4002623,26.1155455 8.06839344,25.9682727 7.76957377,26.0814545 L3.2652459,27.7941818 L3.2652459,29.3187273 L8.21160656,27.1341818 C8.48839344,27.0100909 8.62609836,26.6923636 8.51455738,26.4087273" id="Fill-118" fill="#FFFFFF"></path>
            <path d="M10.0381246,29.9822727 C9.81641967,29.7545455 9.45150164,29.7504545 9.22428852,29.97 L3.26579672,35.6931818 L3.26579672,37.8722727 L10.0436328,30.7704545 C10.2529443,30.5495455 10.2529443,30.2018182 10.0381246,29.9822727" id="Fill-120" fill="#FFFFFF"></path>
            <path d="M13.3974361,12.7523182 C13.6962557,12.6418636 13.8477311,12.3145909 13.7361902,12.0186818 L10.4257639,3.21095455 C9.82537049,3.31322727 9.2208459,3.42777273 8.61356721,3.55459091 L12.6717311,12.4523182 C12.7956656,12.7236818 13.1123869,12.8573182 13.3974361,12.7523182" id="Fill-122" fill="#FFFFFF"></path>
            <path d="M9.71341639,15.2425909 C9.94751475,15.0298636 9.96541639,14.6685 9.75059672,14.4366818 L3.26744918,7.4085 L3.26744918,9.71168182 L8.92023607,15.2275909 C9.13780984,15.4389545 9.48620328,15.4471364 9.71341639,15.2425909" id="Fill-124" fill="#FFFFFF"></path>
            <path d="M6.30370492,18.2408182 C6.43865574,17.9558182 6.31609836,17.6162727 6.02829508,17.4812727 L3.26593443,16.1967273 L3.26593443,17.6312727 L5.5724918,18.5285455 C5.85065574,18.6376364 6.1742623,18.5135455 6.30370492,18.2408182" id="Fill-126" fill="#FFFFFF"></path>
            <path d="M18.1437115,35.1165 C18.131318,34.8233182 17.8917115,34.5805909 17.5915148,34.5683182 C17.2734164,34.5574091 17.0048918,34.8015 16.9938754,35.1165 L16.8189902,39.5810455 L16.6964328,42.7365 C16.8272525,42.7419545 16.9608262,42.7542273 17.0916459,42.7569545 L18.0418098,42.7569545 C18.1740066,42.7528636 18.3062033,42.7419545 18.439777,42.7351364 L18.3199738,39.6410455 L18.1437115,35.1165 Z" id="Fill-128" fill="#FFFFFF"></path>
            <path d="M13.4364066,32.7460909 C13.1472262,32.6151818 12.805718,32.742 12.6735213,33.0297273 L8.92519344,41.1679091 C9.44984918,41.3479091 9.99791475,41.517 10.5569967,41.6779091 L13.7352262,33.4688182 C13.841259,33.1906364 13.7145705,32.8715455 13.4364066,32.7460909" id="Fill-130" fill="#FFFFFF"></path>
            <path d="M17.5473115,11.0244545 C17.8654098,11.0367273 18.1325574,10.7912727 18.1449508,10.4762727 L18.4437705,2.62445455 C18.1063934,2.61490909 17.7662623,2.60127273 17.4357705,2.60127273 C17.1892787,2.60127273 16.9400328,2.61218182 16.6907869,2.61627273 L16.9937377,10.4762727 C17.0047541,10.7708182 17.2443607,11.0121818 17.5473115,11.0244545" id="Fill-132" fill="#FFFFFF"></path>
            <polygon id="Fill-134" fill="#FFFFFF" points="303.364197 15.4063636 307.942885 15.4063636 307.942885 14.0563636 303.364197 14.0563636"></polygon>
            <polygon id="Fill-136" fill="#FFFFFF" points="310.084885 18.7521818 311.386197 18.6512727 311.733213 18.369 311.733213 7.26627273 311.386197 6.984 310.084885 6.88309091 310.084885 6.05672727 315.252951 6.05672727 315.252951 6.88309091 313.951639 6.984 313.604623 7.26627273 313.604623 18.369 313.951639 18.6512727 315.252951 18.7521818 315.252951 19.5785455 310.084885 19.5785455"></polygon>
            <polygon id="Fill-137" fill="#FFFFFF" points="316.493397 18.7521818 317.796085 18.6512727 318.141725 18.369 318.141725 7.26627273 317.796085 6.984 316.493397 6.88309091 316.493397 6.05672727 321.457659 6.05672727 321.457659 6.88309091 320.298184 6.984 319.9732 7.26627273 319.9732 18.6512727 324.551889 18.6512727 324.836938 18.3280909 325.182577 15.9117273 326.241528 15.9117273 326.241528 19.5785455 316.493397 19.5785455"></polygon>
            <path d="M329.682361,9.32195455 C329.546033,9.41604545 329.422098,9.48286364 329.306426,9.52240909 C329.190754,9.56331818 329.051672,9.58377273 328.88918,9.58377273 C328.535279,9.58377273 328.257115,9.48695455 328.054689,9.29195455 C327.850885,9.09695455 327.748984,8.83104545 327.748984,8.49559091 C327.748984,8.13286364 327.864656,7.79059091 328.096,7.46740909 C328.327344,7.14559091 328.635803,6.85922727 329.024131,6.61104545 C329.411082,6.36286364 329.864131,6.16786364 330.380525,6.02740909 C330.896918,5.88559091 331.447738,5.81604545 332.032984,5.81604545 C332.644393,5.81604545 333.199344,5.8965 333.695082,6.05740909 C334.192197,6.21831818 334.616328,6.44331818 334.97023,6.73240909 C335.324131,7.0215 335.59541,7.37331818 335.78682,7.79059091 C335.976852,8.2065 336.071869,8.66331818 336.071869,9.16104545 C336.071869,9.97922727 335.830885,10.6555909 335.347541,11.1860455 C334.865574,11.7165 334.093049,12.1433182 333.031344,12.4651364 C334.186689,12.5728636 335.072131,12.9015 335.683541,13.4524091 C336.294951,14.0033182 336.600656,14.7478636 336.600656,15.6887727 C336.600656,16.2805909 336.471213,16.8274091 336.209574,17.3319545 C335.949311,17.8351364 335.589902,18.2715 335.131344,18.6410455 C334.674164,19.0105909 334.128852,19.2996818 333.498164,19.5083182 C332.867475,19.7155909 332.185836,19.8205909 331.453246,19.8205909 C330.910689,19.8205909 330.394295,19.7578636 329.90682,19.6351364 C329.417967,19.5110455 328.986951,19.3433182 328.61377,19.1305909 C328.24059,18.9192273 327.945902,18.6778636 327.729705,18.4092273 C327.512131,18.1405909 327.403344,17.8583182 327.403344,17.5624091 C327.403344,17.2542273 327.512131,17.0060455 327.729705,16.8178636 C327.945902,16.6296818 328.224066,16.5355909 328.56282,16.5355909 C328.766623,16.5355909 328.963541,16.5683182 329.153574,16.6365 L329.784262,18.3492273 C330.123016,18.5374091 330.419082,18.6655909 330.669705,18.7310455 C330.920328,18.7992273 331.202623,18.8333182 331.513836,18.8333182 C331.975148,18.8333182 332.402033,18.7528636 332.795869,18.5919545 C333.188328,18.4310455 333.528459,18.2087727 333.813508,17.9278636 C334.098557,17.6455909 334.321639,17.3142273 334.484131,16.9324091 C334.648,16.5492273 334.729246,16.1305909 334.729246,15.6751364 C334.729246,14.8692273 334.471738,14.2460455 333.955344,13.8042273 C333.440328,13.3610455 332.721508,13.1401364 331.798885,13.1401364 C331.648787,13.1401364 331.504197,13.1469545 331.360984,13.1592273 C331.219148,13.1728636 330.971279,13.1933182 330.618754,13.2205909 L330.618754,12.0328636 L330.883148,12.0328636 L331.208131,12.0328636 C332.158295,12.0328636 332.895016,11.8051364 333.415541,11.3496818 C333.93882,10.8928636 334.200459,10.2560455 334.200459,9.43786364 C334.200459,8.64695455 333.966361,8.01559091 333.498164,7.54786364 C333.029967,7.07740909 332.402033,6.84286364 331.615738,6.84286364 C331.249443,6.84286364 330.913443,6.8865 330.607738,6.97377273 C330.30341,7.06104545 329.994951,7.21240909 329.682361,7.42786364 L329.682361,9.32195455 Z" id="Fill-138" fill="#FFFFFF"></path>
        </g>
    </g>
</svg>